<mxfile host="app.diagrams.net" agent="Mozilla/5.0 (Macintosh; Intel Mac OS X 10_15_7) AppleWebKit/605.1.15 (KHTML, like Gecko) Version/18.0.1 Safari/605.1.15" version="24.8.3">
  <diagram name="Page-1" id="fDp5jnlC77bflOpHESIz">
    <mxGraphModel dx="1761" dy="602" grid="1" gridSize="10" guides="1" tooltips="1" connect="1" arrows="1" fold="1" page="1" pageScale="1" pageWidth="827" pageHeight="1169" math="0" shadow="0">
      <root>
        <mxCell id="0" />
        <mxCell id="1" parent="0" />
        <mxCell id="RllFxYWtb3R3hPKGHQac-55" value="Vertical Container" style="swimlane;whiteSpace=wrap;html=1;" vertex="1" parent="1">
          <mxGeometry x="-640" y="80" width="380" height="430" as="geometry" />
        </mxCell>
        <mxCell id="RllFxYWtb3R3hPKGHQac-53" value="«component»&lt;br&gt;&lt;b&gt;Shopping Cart&lt;/b&gt;" style="html=1;dropTarget=0;whiteSpace=wrap;" vertex="1" parent="RllFxYWtb3R3hPKGHQac-55">
          <mxGeometry x="100.00000000000023" y="80" width="180" height="90" as="geometry" />
        </mxCell>
        <mxCell id="RllFxYWtb3R3hPKGHQac-54" value="" style="shape=module;jettyWidth=8;jettyHeight=4;" vertex="1" parent="RllFxYWtb3R3hPKGHQac-53">
          <mxGeometry x="1" width="20" height="20" relative="1" as="geometry">
            <mxPoint x="-27" y="7" as="offset" />
          </mxGeometry>
        </mxCell>
        <mxCell id="RllFxYWtb3R3hPKGHQac-51" value="«component»&lt;br&gt;&lt;b&gt;Authentication&lt;/b&gt;" style="html=1;dropTarget=0;whiteSpace=wrap;" vertex="1" parent="RllFxYWtb3R3hPKGHQac-55">
          <mxGeometry x="107.00000000000023" y="270" width="180" height="90" as="geometry" />
        </mxCell>
        <mxCell id="RllFxYWtb3R3hPKGHQac-52" value="" style="shape=module;jettyWidth=8;jettyHeight=4;" vertex="1" parent="RllFxYWtb3R3hPKGHQac-51">
          <mxGeometry x="1" width="20" height="20" relative="1" as="geometry">
            <mxPoint x="-27" y="7" as="offset" />
          </mxGeometry>
        </mxCell>
        <mxCell id="RllFxYWtb3R3hPKGHQac-69" value="" style="html=1;rounded=0;" vertex="1" parent="RllFxYWtb3R3hPKGHQac-55">
          <mxGeometry x="82" y="100" width="30" height="30" as="geometry" />
        </mxCell>
        <mxCell id="RllFxYWtb3R3hPKGHQac-78" value="" style="html=1;rounded=0;" vertex="1" parent="RllFxYWtb3R3hPKGHQac-55">
          <mxGeometry x="89" y="300" width="30" height="30" as="geometry" />
        </mxCell>
        <mxCell id="RllFxYWtb3R3hPKGHQac-79" value="" style="endArrow=none;html=1;rounded=0;align=center;verticalAlign=top;endFill=0;labelBackgroundColor=none;endSize=2;" edge="1" parent="RllFxYWtb3R3hPKGHQac-55" source="RllFxYWtb3R3hPKGHQac-81" target="RllFxYWtb3R3hPKGHQac-80">
          <mxGeometry relative="1" as="geometry" />
        </mxCell>
        <mxCell id="RllFxYWtb3R3hPKGHQac-80" value="UserSession" style="ellipse;html=1;fontSize=11;align=center;fillColor=none;points=[];aspect=fixed;resizable=0;verticalAlign=bottom;labelPosition=center;verticalLabelPosition=top;flipH=1;" vertex="1" parent="RllFxYWtb3R3hPKGHQac-55">
          <mxGeometry x="-93" y="311" width="8" height="8" as="geometry" />
        </mxCell>
        <mxCell id="RllFxYWtb3R3hPKGHQac-81" value="" style="html=1;rounded=0;" vertex="1" parent="RllFxYWtb3R3hPKGHQac-55">
          <mxGeometry x="-13" y="300" width="30" height="30" as="geometry" />
        </mxCell>
        <mxCell id="RllFxYWtb3R3hPKGHQac-82" value="" style="endArrow=none;html=1;rounded=0;align=center;verticalAlign=top;endFill=0;labelBackgroundColor=none;endSize=2;" edge="1" parent="RllFxYWtb3R3hPKGHQac-55" source="RllFxYWtb3R3hPKGHQac-83">
          <mxGeometry relative="1" as="geometry">
            <mxPoint x="-3" y="325" as="sourcePoint" />
            <mxPoint x="47.000000000024784" y="315" as="targetPoint" />
          </mxGeometry>
        </mxCell>
        <mxCell id="RllFxYWtb3R3hPKGHQac-84" value="" style="endArrow=none;html=1;rounded=0;align=center;verticalAlign=top;endFill=0;labelBackgroundColor=none;endSize=2;" edge="1" parent="RllFxYWtb3R3hPKGHQac-55" source="RllFxYWtb3R3hPKGHQac-78" target="RllFxYWtb3R3hPKGHQac-83">
          <mxGeometry relative="1" as="geometry">
            <mxPoint x="55.335999999999785" y="314.6640000000002" as="targetPoint" />
          </mxGeometry>
        </mxCell>
        <mxCell id="RllFxYWtb3R3hPKGHQac-85" value="" style="endArrow=none;html=1;rounded=0;align=center;verticalAlign=top;endFill=0;labelBackgroundColor=none;endSize=2;" edge="1" parent="RllFxYWtb3R3hPKGHQac-55" source="RllFxYWtb3R3hPKGHQac-81" target="RllFxYWtb3R3hPKGHQac-83">
          <mxGeometry relative="1" as="geometry">
            <mxPoint x="-623" y="395" as="sourcePoint" />
            <mxPoint x="-592.9999999999752" y="395" as="targetPoint" />
          </mxGeometry>
        </mxCell>
        <mxCell id="RllFxYWtb3R3hPKGHQac-83" value="" style="ellipse;html=1;fontSize=11;align=center;fillColor=none;points=[];aspect=fixed;resizable=0;verticalAlign=bottom;labelPosition=center;verticalLabelPosition=top;flipH=1;" vertex="1" parent="RllFxYWtb3R3hPKGHQac-55">
          <mxGeometry x="48" y="311" width="8" height="8" as="geometry" />
        </mxCell>
        <mxCell id="RllFxYWtb3R3hPKGHQac-88" value="" style="html=1;rounded=0;" vertex="1" parent="RllFxYWtb3R3hPKGHQac-55">
          <mxGeometry x="170" y="150" width="30" height="30" as="geometry" />
        </mxCell>
        <mxCell id="RllFxYWtb3R3hPKGHQac-89" value="" style="endArrow=none;html=1;rounded=0;align=center;verticalAlign=top;endFill=0;labelBackgroundColor=none;endSize=2;" edge="1" source="RllFxYWtb3R3hPKGHQac-88" target="RllFxYWtb3R3hPKGHQac-90" parent="RllFxYWtb3R3hPKGHQac-55">
          <mxGeometry relative="1" as="geometry" />
        </mxCell>
        <mxCell id="RllFxYWtb3R3hPKGHQac-90" value="" style="shape=requiredInterface;html=1;fontSize=11;align=center;fillColor=none;points=[];aspect=fixed;resizable=0;verticalAlign=bottom;labelPosition=center;verticalLabelPosition=top;flipH=1;rotation=90;" vertex="1" parent="RllFxYWtb3R3hPKGHQac-55">
          <mxGeometry x="182.5" y="200" width="5" height="10" as="geometry" />
        </mxCell>
        <mxCell id="RllFxYWtb3R3hPKGHQac-91" value="" style="html=1;rounded=0;" vertex="1" parent="RllFxYWtb3R3hPKGHQac-55">
          <mxGeometry x="170" y="260" width="30" height="30" as="geometry" />
        </mxCell>
        <mxCell id="RllFxYWtb3R3hPKGHQac-92" value="" style="endArrow=none;html=1;rounded=0;align=center;verticalAlign=top;endFill=0;labelBackgroundColor=none;endSize=2;" edge="1" source="RllFxYWtb3R3hPKGHQac-91" target="RllFxYWtb3R3hPKGHQac-93" parent="RllFxYWtb3R3hPKGHQac-55">
          <mxGeometry relative="1" as="geometry" />
        </mxCell>
        <mxCell id="RllFxYWtb3R3hPKGHQac-93" value="" style="ellipse;html=1;fontSize=11;align=center;fillColor=none;points=[];aspect=fixed;resizable=0;verticalAlign=bottom;labelPosition=center;verticalLabelPosition=top;flipH=1;" vertex="1" parent="RllFxYWtb3R3hPKGHQac-55">
          <mxGeometry x="181" y="210" width="8" height="8" as="geometry" />
        </mxCell>
        <mxCell id="RllFxYWtb3R3hPKGHQac-94" value="&lt;font style=&quot;font-size: 10px;&quot;&gt;UserSession&lt;/font&gt;" style="text;html=1;align=center;verticalAlign=middle;resizable=0;points=[];autosize=1;strokeColor=none;fillColor=none;" vertex="1" parent="RllFxYWtb3R3hPKGHQac-55">
          <mxGeometry x="187" y="199" width="80" height="30" as="geometry" />
        </mxCell>
        <mxCell id="RllFxYWtb3R3hPKGHQac-56" value="Vertical Container" style="swimlane;whiteSpace=wrap;html=1;" vertex="1" parent="1">
          <mxGeometry x="-210" y="80" width="500" height="720" as="geometry" />
        </mxCell>
        <mxCell id="RllFxYWtb3R3hPKGHQac-41" value="«component»&lt;br&gt;&lt;b&gt;Orders&lt;/b&gt;" style="html=1;dropTarget=0;whiteSpace=wrap;" vertex="1" parent="RllFxYWtb3R3hPKGHQac-56">
          <mxGeometry x="160.00000000000023" y="90" width="180" height="90" as="geometry" />
        </mxCell>
        <mxCell id="RllFxYWtb3R3hPKGHQac-42" value="" style="shape=module;jettyWidth=8;jettyHeight=4;" vertex="1" parent="RllFxYWtb3R3hPKGHQac-41">
          <mxGeometry x="1" width="20" height="20" relative="1" as="geometry">
            <mxPoint x="-27" y="7" as="offset" />
          </mxGeometry>
        </mxCell>
        <mxCell id="RllFxYWtb3R3hPKGHQac-43" value="«component»&lt;br&gt;&lt;b&gt;Customers&lt;/b&gt;" style="html=1;dropTarget=0;whiteSpace=wrap;" vertex="1" parent="RllFxYWtb3R3hPKGHQac-56">
          <mxGeometry x="160.00000000000023" y="450" width="180" height="90" as="geometry" />
        </mxCell>
        <mxCell id="RllFxYWtb3R3hPKGHQac-44" value="" style="shape=module;jettyWidth=8;jettyHeight=4;" vertex="1" parent="RllFxYWtb3R3hPKGHQac-43">
          <mxGeometry x="1" width="20" height="20" relative="1" as="geometry">
            <mxPoint x="-27" y="7" as="offset" />
          </mxGeometry>
        </mxCell>
        <mxCell id="RllFxYWtb3R3hPKGHQac-49" value="«component»&lt;br&gt;&lt;b&gt;Notifications&lt;/b&gt;" style="html=1;dropTarget=0;whiteSpace=wrap;" vertex="1" parent="RllFxYWtb3R3hPKGHQac-56">
          <mxGeometry x="160.00000000000023" y="610" width="180" height="90" as="geometry" />
        </mxCell>
        <mxCell id="RllFxYWtb3R3hPKGHQac-50" value="" style="shape=module;jettyWidth=8;jettyHeight=4;" vertex="1" parent="RllFxYWtb3R3hPKGHQac-49">
          <mxGeometry x="1" width="20" height="20" relative="1" as="geometry">
            <mxPoint x="-27" y="7" as="offset" />
          </mxGeometry>
        </mxCell>
        <mxCell id="RllFxYWtb3R3hPKGHQac-86" value="«component»&lt;br&gt;&lt;b&gt;Staffs/ Manager&lt;/b&gt;" style="html=1;dropTarget=0;whiteSpace=wrap;" vertex="1" parent="RllFxYWtb3R3hPKGHQac-56">
          <mxGeometry x="160.00000000000023" y="270" width="180" height="90" as="geometry" />
        </mxCell>
        <mxCell id="RllFxYWtb3R3hPKGHQac-87" value="" style="shape=module;jettyWidth=8;jettyHeight=4;" vertex="1" parent="RllFxYWtb3R3hPKGHQac-86">
          <mxGeometry x="1" width="20" height="20" relative="1" as="geometry">
            <mxPoint x="-27" y="7" as="offset" />
          </mxGeometry>
        </mxCell>
        <mxCell id="RllFxYWtb3R3hPKGHQac-64" value="Vertical Container" style="swimlane;whiteSpace=wrap;html=1;" vertex="1" parent="1">
          <mxGeometry x="340" y="70" width="260" height="400" as="geometry" />
        </mxCell>
        <mxCell id="RllFxYWtb3R3hPKGHQac-45" value="«component»&lt;br&gt;&lt;b&gt;Services&lt;/b&gt;" style="html=1;dropTarget=0;whiteSpace=wrap;" vertex="1" parent="RllFxYWtb3R3hPKGHQac-64">
          <mxGeometry x="40.00000000000023" y="80" width="180" height="90" as="geometry" />
        </mxCell>
        <mxCell id="RllFxYWtb3R3hPKGHQac-46" value="" style="shape=module;jettyWidth=8;jettyHeight=4;" vertex="1" parent="RllFxYWtb3R3hPKGHQac-45">
          <mxGeometry x="1" width="20" height="20" relative="1" as="geometry">
            <mxPoint x="-27" y="7" as="offset" />
          </mxGeometry>
        </mxCell>
        <mxCell id="RllFxYWtb3R3hPKGHQac-47" value="«component»&lt;br&gt;&lt;b&gt;Products&lt;/b&gt;" style="html=1;dropTarget=0;whiteSpace=wrap;" vertex="1" parent="RllFxYWtb3R3hPKGHQac-64">
          <mxGeometry x="40.00000000000023" y="220" width="180" height="90" as="geometry" />
        </mxCell>
        <mxCell id="RllFxYWtb3R3hPKGHQac-48" value="" style="shape=module;jettyWidth=8;jettyHeight=4;" vertex="1" parent="RllFxYWtb3R3hPKGHQac-47">
          <mxGeometry x="1" width="20" height="20" relative="1" as="geometry">
            <mxPoint x="-27" y="7" as="offset" />
          </mxGeometry>
        </mxCell>
        <mxCell id="RllFxYWtb3R3hPKGHQac-66" value="" style="endArrow=none;html=1;rounded=0;align=center;verticalAlign=top;endFill=0;labelBackgroundColor=none;endSize=2;" edge="1" source="RllFxYWtb3R3hPKGHQac-65" target="RllFxYWtb3R3hPKGHQac-67" parent="1">
          <mxGeometry relative="1" as="geometry" />
        </mxCell>
        <mxCell id="RllFxYWtb3R3hPKGHQac-67" value="Online Shopping" style="ellipse;html=1;fontSize=11;align=center;fillColor=none;points=[];aspect=fixed;resizable=0;verticalAlign=bottom;labelPosition=center;verticalLabelPosition=top;flipH=1;" vertex="1" parent="1">
          <mxGeometry x="-740" y="191" width="8" height="8" as="geometry" />
        </mxCell>
        <mxCell id="RllFxYWtb3R3hPKGHQac-65" value="" style="html=1;rounded=0;" vertex="1" parent="1">
          <mxGeometry x="-660" y="180" width="30" height="30" as="geometry" />
        </mxCell>
        <mxCell id="RllFxYWtb3R3hPKGHQac-70" value="" style="endArrow=none;html=1;rounded=0;align=center;verticalAlign=top;endFill=0;labelBackgroundColor=none;endSize=2;" edge="1" parent="1" target="RllFxYWtb3R3hPKGHQac-71" source="RllFxYWtb3R3hPKGHQac-65">
          <mxGeometry relative="1" as="geometry">
            <mxPoint x="-650" y="205" as="sourcePoint" />
          </mxGeometry>
        </mxCell>
        <mxCell id="RllFxYWtb3R3hPKGHQac-71" value="" style="ellipse;html=1;fontSize=11;align=center;fillColor=none;points=[];aspect=fixed;resizable=0;verticalAlign=bottom;labelPosition=center;verticalLabelPosition=top;flipH=1;" vertex="1" parent="1">
          <mxGeometry x="-600" y="191" width="8" height="8" as="geometry" />
        </mxCell>
        <mxCell id="RllFxYWtb3R3hPKGHQac-68" value="" style="endArrow=none;html=1;rounded=0;align=center;verticalAlign=top;endFill=0;labelBackgroundColor=none;endSize=2;" edge="1" parent="1" source="RllFxYWtb3R3hPKGHQac-69" target="RllFxYWtb3R3hPKGHQac-71">
          <mxGeometry relative="1" as="geometry">
            <mxPoint x="-590" y="195" as="targetPoint" />
          </mxGeometry>
        </mxCell>
      </root>
    </mxGraphModel>
  </diagram>
</mxfile>
